<svg width="222" height="141" viewBox="0 0 222 141" fill="none" xmlns="http://www.w3.org/2000/svg">
<path d="M55.5705 124.815L55.2273 124.389C59.0086 121.908 72.4855 114.305 87.1509 120.692C98.3974 125.59 106.247 122.563 113.173 119.893C116.83 118.483 120.283 117.151 123.919 117.054C129.431 116.903 134.063 118.631 138.535 120.301C141.786 121.515 144.856 122.663 148.122 123.052L148.046 123.574C144.704 123.176 141.599 122.016 138.311 120.788C133.897 119.138 129.316 117.43 123.936 117.58C120.411 117.675 117.006 118.988 113.402 120.377C106.362 123.092 98.3827 126.169 86.8979 121.166C72.523 114.906 59.2848 122.376 55.5705 124.815Z" fill="#F2F2F2"/>
<path d="M99.0161 127.933C95.5428 127.933 91.6995 127.21 87.3399 125.271C75.7837 120.119 64.9737 124.27 59.5573 127.202L59.2578 126.75C64.7751 123.763 75.794 119.537 87.5983 124.799C98.5801 129.683 106.252 126.663 113.021 123.998C116.606 122.587 119.993 121.254 123.56 121.16C128.934 121.011 133.458 122.731 137.825 124.396C139.994 125.222 142.043 126.003 144.161 126.551L144.001 127.057C141.848 126.501 139.784 125.714 137.599 124.881C133.289 123.239 128.832 121.53 123.578 121.687C120.122 121.777 116.786 123.09 113.254 124.481C109.043 126.139 104.488 127.933 99.0161 127.933Z" fill="#F2F2F2"/>
<path d="M98.5028 131.97C95.0259 131.97 91.1794 131.245 86.8153 129.301C77.6985 125.24 69.0827 126.996 63.4602 129.184L63.229 128.701C68.9654 126.469 77.7587 124.679 87.0728 128.829C98.065 133.724 105.739 130.7 112.509 128.031C116.09 126.62 119.472 125.287 123.036 125.19C128.422 125.042 132.942 126.76 137.31 128.425C138.275 128.793 139.274 129.174 140.249 129.52L140.036 130.011C139.054 129.662 138.052 129.28 137.083 128.911C132.773 127.267 128.326 125.574 123.053 125.716C119.602 125.811 116.27 127.124 112.743 128.515C108.531 130.174 103.975 131.97 98.5028 131.97Z" fill="#F2F2F2"/>
<path d="M99.9572 135.999C96.4803 135.999 92.6339 135.274 88.2698 133.33C81.9046 130.496 75.0539 130.117 67.9082 132.202L67.7292 131.701C75.024 129.573 82.0224 129.962 88.5273 132.858C99.5185 137.754 107.193 134.729 113.963 132.06C117.545 130.649 120.927 129.316 124.49 129.219C128.881 129.099 132.648 130.23 135.774 131.35L135.559 131.84C132.489 130.74 128.772 129.633 124.507 129.746C121.057 129.84 117.725 131.153 114.197 132.544C109.985 134.203 105.429 135.999 99.9572 135.999Z" fill="#F2F2F2"/>
<path d="M100.408 140.037C99.244 140.037 98.0846 139.955 96.9176 139.792C94.2377 139.41 91.5815 138.618 88.7816 137.372C84.0333 135.26 78.9775 134.508 73.7552 135.137L73.678 134.614C79.0198 133.972 84.1859 134.741 89.0391 136.899C91.7859 138.122 94.3881 138.898 96.9948 139.271C99.2462 139.585 101.46 139.589 103.776 139.283L103.886 139.28C107.753 138.741 111.159 137.397 114.453 136.097C118.037 134.682 121.424 133.345 124.988 133.248C126.536 133.203 128.121 133.32 129.824 133.609L129.718 134.126C128.056 133.845 126.517 133.731 125.006 133.775C121.554 133.869 118.218 135.186 114.686 136.58C111.358 137.893 107.918 139.252 103.958 139.804L103.818 139.807C102.67 139.961 101.537 140.037 100.408 140.037Z" fill="#F2F2F2"/>
<path d="M209.32 46.6534C210.749 46.9582 212.591 48.1315 212.058 51.3707C212.058 51.3707 214.925 49.6552 216.269 47.1134C216.886 45.9472 216.283 44.5372 214.941 44.089C213.989 43.771 212.95 43.8641 212.475 45.3994C212.475 45.3994 211.211 42.9547 208.886 43.7855C207.058 44.4385 207.776 46.3245 209.32 46.6534Z" fill="#F2F2F2"/>
<path d="M204.965 37.0323C206.394 37.337 208.235 38.5104 207.703 41.7495C207.703 41.7495 210.569 40.034 211.914 37.4922C212.53 36.3261 211.928 34.9161 210.586 34.4679C209.634 34.1499 208.594 34.243 208.119 35.7783C208.119 35.7783 206.856 33.3336 204.531 34.1644C202.703 34.8174 203.42 36.7034 204.965 37.0323Z" fill="#F2F2F2"/>
<path d="M211.902 32.2726C213.331 32.5773 215.173 33.7507 214.64 36.9899C214.64 36.9899 217.507 35.2743 218.851 32.7321C219.468 31.5664 218.865 30.1564 217.523 29.7081C216.571 29.3901 215.532 29.4832 215.057 31.0186C215.057 31.0186 213.794 28.5739 211.468 29.4046C209.641 30.0576 210.358 31.9437 211.902 32.2726Z" fill="#F2F2F2"/>
<path d="M199.178 36.1519C197.749 36.4566 195.907 37.63 196.44 40.8691C196.44 40.8691 193.574 39.1536 192.229 36.6118C191.612 35.4457 192.215 34.0357 193.557 33.5875C194.509 33.2695 195.548 33.3626 196.024 34.8979C196.024 34.8979 197.287 32.4533 199.612 33.284C201.44 33.937 200.722 35.823 199.178 36.1519Z" fill="#F2F2F2"/>
<path d="M208.178 29.0666C206.749 29.3709 204.908 30.5443 205.44 33.7839C205.44 33.7839 202.574 32.068 201.229 29.5261C200.612 28.3604 201.215 26.95 202.557 26.5018C203.51 26.1837 204.549 26.2768 205.024 27.8126C205.024 27.8126 206.287 25.3679 208.612 26.1982C210.44 26.8516 209.723 28.7373 208.178 29.0666Z" fill="#F2F2F2"/>
<path d="M198.946 40.3538C199.824 40.5408 200.955 41.2611 200.627 43.2507C200.627 43.2507 202.388 42.1971 203.214 40.6359C203.592 39.9201 203.222 39.0538 202.398 38.7789C201.813 38.5834 201.175 38.6407 200.883 39.5835C200.883 39.5835 200.108 38.0824 198.679 38.5923C197.557 38.9934 197.998 40.1518 198.946 40.3538Z" fill="#F2F2F2"/>
<path d="M217.584 39.6737C218.462 39.8608 219.592 40.5811 219.265 42.5707C219.265 42.5707 221.025 41.517 221.851 39.9559C222.23 39.24 221.86 38.3738 221.035 38.0989C220.451 37.9034 219.812 37.9606 219.521 38.9034C219.521 38.9034 218.745 37.4024 217.317 37.9123C216.195 38.3133 216.636 39.4718 217.584 39.6737Z" fill="#F2F2F2"/>
<path d="M161.704 51.5034C163.133 51.8077 164.974 52.9811 164.442 56.2207C164.442 56.2207 167.308 54.5048 168.653 51.9629C169.27 50.7972 168.667 49.3868 167.325 48.9386C166.373 48.6205 165.334 48.7137 164.858 50.2494C164.858 50.2494 163.595 47.8047 161.27 48.6355C159.442 49.2885 160.159 51.1745 161.704 51.5034Z" fill="#F2F2F2"/>
<path d="M157.351 42.71C158.781 43.0147 160.622 44.1881 160.09 47.4272C160.09 47.4272 162.956 45.7113 164.3 43.1695C164.917 42.0037 164.314 40.5934 162.972 40.1451C162.02 39.8275 160.981 39.9206 160.505 41.456C160.505 41.456 159.243 39.0112 156.917 39.842C155.09 40.495 155.807 42.381 157.351 42.71Z" fill="#F2F2F2"/>
<path d="M164.286 37.1243C165.715 37.4286 167.556 38.602 167.024 41.8416C167.024 41.8416 169.89 40.1256 171.235 37.5838C171.851 36.4181 171.248 35.0077 169.907 34.5595C168.955 34.2414 167.915 34.3346 167.44 35.8703C167.44 35.8703 166.177 33.4256 163.852 34.256C162.024 34.9093 162.741 36.795 164.286 37.1243Z" fill="#F2F2F2"/>
<path d="M153.368 44.1988C151.939 44.5032 150.098 45.6765 150.63 48.9161C150.63 48.9161 147.764 47.2002 146.419 44.6584C145.802 43.4926 146.405 42.0822 147.747 41.634C148.699 41.316 149.738 41.4091 150.214 42.9448C150.214 42.9448 151.477 40.5001 153.802 41.3309C155.63 41.9839 154.912 43.8695 153.368 44.1988Z" fill="#F2F2F2"/>
<path d="M161.344 34.4439C159.914 34.7486 158.073 35.922 158.605 39.1611C158.605 39.1611 155.739 37.4456 154.395 34.9034C153.778 33.7377 154.38 32.3277 155.722 31.8791C156.675 31.5615 157.714 31.6546 158.189 33.1899C158.189 33.1899 159.452 30.7452 161.777 31.576C163.605 32.229 162.888 34.115 161.344 34.4439Z" fill="#F2F2F2"/>
<path d="M154.089 50.3296C154.967 50.5166 156.097 51.237 155.771 53.2266C155.771 53.2266 157.531 52.1729 158.357 50.6118C158.735 49.8959 158.365 49.0297 157.54 48.7548C156.956 48.5593 156.318 48.6165 156.026 49.5593C156.026 49.5593 155.251 48.0582 153.822 48.5681C152.7 48.9692 153.141 50.1277 154.089 50.3296Z" fill="#F2F2F2"/>
<path d="M169.967 44.5221C170.845 44.7091 171.976 45.4295 171.649 47.4191C171.649 47.4191 173.409 46.3654 174.235 44.8043C174.614 44.0884 174.243 43.2222 173.419 42.9469C172.835 42.7518 172.196 42.809 171.905 43.7518C171.905 43.7518 171.129 42.2508 169.701 42.7607C168.579 43.1617 169.019 44.3202 169.967 44.5221Z" fill="#F2F2F2"/>
<path d="M185.867 41.0659C187.296 41.3706 189.137 42.544 188.605 45.7832C188.605 45.7832 191.471 44.0677 192.815 41.5254C193.432 40.3597 192.83 38.9497 191.488 38.5011C190.535 38.1835 189.496 38.2766 189.021 39.8119C189.021 39.8119 187.758 37.3672 185.433 38.198C183.605 38.851 184.323 40.737 185.867 41.0659Z" fill="#F2F2F2"/>
<path d="M183.285 31.4448C184.714 31.7495 186.556 32.9229 186.023 36.1621C186.023 36.1621 188.889 34.4462 190.234 31.9043C190.851 30.7386 190.248 29.3286 188.906 28.88C187.954 28.5624 186.915 28.6555 186.439 30.1908C186.439 30.1908 185.176 27.7461 182.851 28.5769C181.023 29.2299 181.741 31.1159 183.285 31.4448Z" fill="#F2F2F2"/>
<path d="M190.223 26.6867C191.652 26.9914 193.493 28.1648 192.96 31.4041C192.96 31.4041 195.827 29.6881 197.171 27.1462C197.788 25.9805 197.185 24.5701 195.843 24.1218C194.891 23.8042 193.852 23.8973 193.377 25.4327C193.377 25.4327 192.113 22.9879 189.788 23.8187C187.961 24.4717 188.678 26.3578 190.223 26.6867Z" fill="#F2F2F2"/>
<path d="M177.498 30.5644C176.069 30.8692 174.227 32.0426 174.76 35.2817C174.76 35.2817 171.893 33.5658 170.549 31.024C169.932 29.8582 170.535 28.4482 171.877 27.9996C172.829 27.682 173.869 27.7751 174.344 29.3104C174.344 29.3104 175.607 26.8657 177.932 27.6965C179.76 28.3495 179.043 30.2355 177.498 30.5644Z" fill="#F2F2F2"/>
<path d="M186.498 23.4791C185.069 23.7838 183.228 24.9572 183.76 28.1964C183.76 28.1964 180.894 26.4809 179.549 23.939C178.933 22.7729 179.536 21.3629 180.878 20.9147C181.829 20.5967 182.869 20.6898 183.344 22.2251C183.344 22.2251 184.607 19.7804 186.933 20.6112C188.76 21.2642 188.043 23.1502 186.498 23.4791Z" fill="#F2F2F2"/>
<path d="M177.263 34.7663C178.141 34.9533 179.272 35.6736 178.945 37.6632C178.945 37.6632 180.705 36.6096 181.531 35.0484C181.909 34.3325 181.539 33.4663 180.714 33.1914C180.13 32.9959 179.492 33.0532 179.2 33.996C179.2 33.996 178.425 32.4949 176.997 33.0048C175.874 33.4059 176.315 34.5643 177.263 34.7663Z" fill="#F2F2F2"/>
<path d="M198.578 23.1315C199.456 23.3185 200.587 24.0388 200.26 26.0284C200.26 26.0284 202.02 24.9748 202.846 23.4137C203.225 22.6978 202.854 21.8316 202.03 21.5567C201.445 21.3612 200.807 21.4184 200.516 22.3612C200.516 22.3612 199.74 20.8601 198.312 21.37C197.189 21.7711 197.63 22.9296 198.578 23.1315Z" fill="#F2F2F2"/>
<path d="M140.757 29.2751C142.186 29.5799 144.027 30.7532 143.495 33.9924C143.495 33.9924 146.361 32.2769 147.705 29.7347C148.323 28.5689 147.72 27.1589 146.378 26.7107C145.425 26.3927 144.386 26.4858 143.911 28.0211C143.911 28.0211 142.648 25.5764 140.323 26.4072C138.495 27.0602 139.212 28.9462 140.757 29.2751Z" fill="#F2F2F2"/>
<path d="M136.401 19.6523C137.83 19.9571 139.672 21.1304 139.139 24.3696C139.139 24.3696 142.005 22.6541 143.35 20.1118C143.967 18.9461 143.364 17.5361 142.022 17.0875C141.07 16.7699 140.031 16.863 139.555 18.3983C139.555 18.3983 138.292 15.9536 135.967 16.7844C134.139 17.4374 134.856 19.3234 136.401 19.6523Z" fill="#F2F2F2"/>
<path d="M143.339 14.8927C144.767 15.1974 146.609 16.3708 146.076 19.61C146.076 19.61 148.943 17.8945 150.287 15.3522C150.904 14.1865 150.301 12.7765 148.959 12.3279C148.007 12.0102 146.968 12.1033 146.493 13.6387C146.493 13.6387 145.229 11.194 142.904 12.0247C141.077 12.6777 141.794 14.5638 143.339 14.8927Z" fill="#F2F2F2"/>
<path d="M130.614 18.7721C129.185 19.0768 127.343 20.2502 127.876 23.4894C127.876 23.4894 125.009 21.7739 123.665 19.2316C123.048 18.0659 123.651 16.6559 124.993 16.2073C125.945 15.8896 126.985 15.9827 127.46 17.5181C127.46 17.5181 128.723 15.0734 131.048 15.9041C132.876 16.5571 132.159 18.4432 130.614 18.7721Z" fill="#F2F2F2"/>
<path d="M93.9656 18.0428C92.5362 18.3475 90.6949 19.5209 91.2277 22.7601C91.2277 22.7601 88.3613 21.0446 87.0167 18.5027C86.4 17.3366 87.0029 15.9266 88.3448 15.4783C89.2967 15.1603 90.3361 15.2534 90.8114 16.7888C90.8114 16.7888 92.0743 14.344 94.3994 15.1748C96.2273 15.8278 95.5097 17.7139 93.9656 18.0428Z" fill="#F2F2F2"/>
<path d="M139.618 11.6868C138.189 11.9915 136.347 13.1649 136.88 16.4041C136.88 16.4041 134.013 14.6885 132.669 12.1467C132.052 10.9806 132.655 9.57065 133.997 9.12243C134.949 8.8044 135.988 8.89751 136.463 10.4328C136.463 10.4328 137.727 7.98817 140.052 8.81891C141.879 9.4719 141.162 11.3579 139.618 11.6868Z" fill="#F2F2F2"/>
<path d="M130.682 25.7199C131.559 25.9069 132.69 26.6272 132.363 28.6169C132.363 28.6169 134.123 27.5632 134.949 26.002C135.328 25.2861 134.957 24.4199 134.133 24.145C133.549 23.9495 132.91 24.0067 132.619 24.9495C132.619 24.9495 131.843 23.4484 130.415 23.9583C129.292 24.3594 129.733 25.5179 130.682 25.7199Z" fill="#F2F2F2"/>
<path d="M149.021 22.2939C149.898 22.4809 151.029 23.2013 150.702 25.1909C150.702 25.1909 152.462 24.1372 153.288 22.5761C153.667 21.8602 153.296 20.9939 152.472 20.719C151.888 20.5235 151.249 20.5808 150.958 21.5236C150.958 21.5236 150.182 20.0225 148.754 20.5324C147.631 20.9335 148.072 22.092 149.021 22.2939Z" fill="#F2F2F2"/>
<path d="M75.2282 25.189C76.6576 25.4937 78.4989 26.6671 77.9661 29.9062C77.9661 29.9062 80.8325 28.1907 82.1771 25.6485C82.7943 24.4828 82.1909 23.0729 80.849 22.6246C79.8971 22.3066 78.8577 22.3997 78.3824 23.935C78.3824 23.935 77.1195 21.4904 74.7944 22.3211C72.9665 22.9741 73.6841 24.8601 75.2282 25.189Z" fill="#F2F2F2"/>
<path d="M114.721 14.0667C116.151 14.371 117.992 15.5448 117.459 18.7839C117.459 18.7839 120.326 17.068 121.67 14.5262C122.287 13.3605 121.684 11.9501 120.342 11.5019C119.39 11.1843 118.351 11.2774 117.876 12.8127C117.876 12.8127 116.612 10.368 114.287 11.1988C112.459 11.8518 113.177 13.7378 114.721 14.0667Z" fill="#F2F2F2"/>
<path d="M121.659 9.30687C123.088 9.6112 124.929 10.785 124.397 14.0242C124.397 14.0242 127.263 12.3082 128.608 9.76639C129.225 8.60067 128.622 7.19028 127.28 6.74205C126.328 6.42401 125.288 6.51713 124.813 8.05288C124.813 8.05288 123.55 5.60817 121.225 6.43893C119.397 7.09193 120.115 8.97796 121.659 9.30687Z" fill="#F2F2F2"/>
<path d="M108.935 13.1862C107.506 13.4905 105.664 14.6643 106.197 17.9036C106.197 17.9036 103.33 16.1876 101.986 13.6457C101.369 12.48 101.972 11.0696 103.314 10.6213C104.266 10.3037 105.305 10.3968 105.78 11.9322C105.78 11.9322 107.044 9.48745 109.369 10.3182C111.197 10.9712 110.479 12.8573 108.935 13.1862Z" fill="#F2F2F2"/>
<path d="M102.674 6.09929C101.244 6.40403 99.4031 7.57742 99.936 10.8167C99.936 10.8167 97.0691 9.1011 95.7249 6.55881C95.1077 5.39308 95.7111 3.98307 97.053 3.53483C98.0049 3.2168 99.0443 3.30991 99.5196 4.84528C99.5196 4.84528 100.783 2.40054 103.108 3.23131C104.936 3.88431 104.218 5.77037 102.674 6.09929Z" fill="#F2F2F2"/>
<path d="M85.2549 14.6825C83.8255 14.9868 81.9842 16.1602 82.5166 19.3998C82.5166 19.3998 79.6502 17.6839 78.3056 15.142C77.6888 13.9763 78.2917 12.5659 79.6337 12.1177C80.586 11.7997 81.6254 11.8928 82.1002 13.4285C82.1002 13.4285 83.3636 10.9838 85.6887 11.8142C87.5166 12.4676 86.799 14.3532 85.2549 14.6825Z" fill="#F2F2F2"/>
<path d="M120.395 4.60302C118.966 4.90775 117.124 6.08113 117.657 9.32031C117.657 9.32031 114.79 7.60479 113.446 5.06294C112.83 3.89681 113.432 2.48682 114.774 2.03859C115.726 1.72056 116.766 1.81367 117.241 3.34902C117.241 3.34902 118.504 0.904314 120.829 1.73507C122.657 2.38807 121.939 4.2741 120.395 4.60302Z" fill="#F2F2F2"/>
<path d="M108.516 20.75C109.394 20.9371 110.524 21.6574 110.197 23.647C110.197 23.647 111.957 22.5933 112.783 21.0322C113.162 20.3163 112.791 19.4501 111.967 19.1748C111.383 18.9797 110.744 19.0369 110.453 19.9797C110.453 19.9797 109.677 18.4787 108.249 18.9886C107.127 19.3896 107.567 20.5481 108.516 20.75Z" fill="#F2F2F2"/>
<path d="M105.842 2.54562C106.72 2.73265 107.851 3.45297 107.523 5.44263C107.523 5.44263 109.283 4.38895 110.11 2.82778C110.488 2.11189 110.118 1.24565 109.293 0.970743C108.709 0.775244 108.071 0.832483 107.779 1.77531C107.779 1.77531 107.003 0.274203 105.575 0.784112C104.453 1.18519 104.894 2.34367 105.842 2.54562Z" fill="#F2F2F2"/>
<path d="M89.385 8.80491C90.2629 8.99195 91.3933 9.71267 91.0666 11.7019C91.0666 11.7019 92.8267 10.6482 93.6527 9.08708C94.0312 8.37119 93.6608 7.50536 92.837 7.23005C92.2519 7.03455 91.6137 7.09179 91.3223 8.03502C91.3223 8.03502 90.5467 6.53352 89.1186 7.04382C87.9958 7.44449 88.4367 8.60297 89.385 8.80491Z" fill="#F2F2F2"/>
<path d="M103.168 27.0094C104.046 27.1964 105.176 27.9167 104.849 29.9062C104.849 29.9062 106.609 28.8526 107.435 27.2915C107.814 26.5757 107.444 25.7095 106.62 25.4346C106.035 25.2391 105.397 25.2963 105.105 26.2391C105.105 26.2391 104.329 24.738 102.901 25.2479C101.779 25.649 102.219 26.8074 103.168 27.0094Z" fill="#F2F2F2"/>
<path d="M130.014 5.75173C130.892 5.93876 132.023 6.65907 131.696 8.64868C131.696 8.64868 133.457 7.59503 134.282 6.03389C134.661 5.31802 134.291 4.4518 133.466 4.17649C132.882 3.9814 132.244 4.03864 131.952 4.98144C131.952 4.98144 131.176 3.48037 129.748 3.99027C128.626 4.39133 129.066 5.54979 130.014 5.75173Z" fill="#F2F2F2"/>
<path d="M197.784 82.9615C195.081 86.1084 183.405 97.0162 176.333 102.661C171.519 106.514 160.306 113.818 153.783 117.917C149.708 114.466 146.138 110.575 143.204 106.323C142.402 104.893 141.515 103.481 140.502 102.089C136.28 96.177 130.261 90.5504 121.774 85.975C120.971 85.5171 120.105 85.0781 119.24 84.6573H119.219C111.28 82.0074 96.3313 75.2945 85.0982 59.9039C83.3028 57.3871 81.5726 54.6594 80.0093 51.6846C77.18 46.3829 75.7867 38.5066 75.9983 30.8029C76.5048 39.5183 79.5457 46.7831 91.0318 55.2503C86.2799 40.2431 95.5066 27.1408 101.883 19.7221C94.7903 33.701 89.9973 49.4145 106.445 64.6535C106.931 65.1299 107.458 65.5874 108.028 66.0638C108.133 65.949 108.24 65.797 108.344 65.6636C125.701 44.3239 118.078 25.0243 110.899 14.3627C114.594 18.0819 126.63 31.7554 124.982 49.6442C132.521 43.9035 140.882 41.0049 146.329 39.6316C146.645 39.5554 146.963 39.4793 147.258 39.4035C148.631 39.079 149.75 38.8492 150.595 38.6977C149.918 38.8311 147.87 39.6703 145.148 41.0622C133.513 47.0125 109.697 63.0709 128.55 78.2321C128.993 78.5937 129.459 78.8992 129.903 79.2237C131.232 80.1762 132.477 81.1106 133.619 82.0461C148.42 93.9069 149.559 103.462 151.629 105.502C157.14 94.422 149.075 84.4678 140.607 74.2456C138.432 71.5942 136.068 69.3441 133.682 67.6854C132.712 66.9796 131.718 66.3883 130.748 65.9119C131.507 66.2364 132.521 66.7309 133.746 67.3799C133.787 67.3985 133.809 67.4186 133.85 67.4371C138.791 70.0116 146.772 75.0466 152.854 83.0192C156.569 64.9001 172.616 54.2978 177.389 51.5125C167.506 59.9426 154.838 76.1526 163.305 99.8201C163.517 100.467 163.769 101.116 164.024 101.764C183.786 84.6388 191.852 64.0996 175.51 38.0874C195.609 58.3972 189.93 79.7187 190.141 80.1762C202.915 70.3357 206.379 61.7537 206.97 51.5327C207.242 60.9157 205.279 74.2275 197.784 82.9615Z" fill="#F2F2F2"/>
<path d="M84.4756 43.5496C86.6801 43.5496 88.467 41.9356 88.467 39.9444C88.467 37.9536 86.6801 36.3393 84.4756 36.3393C82.2714 36.3393 80.4841 37.9536 80.4841 39.9444C80.4841 41.9356 82.2714 43.5496 84.4756 43.5496Z" fill="#F2F2F2"/>
<path d="M130.328 42.2488C132.532 42.2488 134.319 40.6348 134.319 38.6436C134.319 36.6528 132.532 35.0384 130.328 35.0384C128.124 35.0384 126.337 36.6528 126.337 38.6436C126.337 40.6348 128.124 42.2488 130.328 42.2488Z" fill="#F2F2F2"/>
<path d="M201.547 62.6535C201.547 65.0732 199.375 67.035 196.696 67.035C194.017 67.035 191.845 65.0732 191.845 62.6535C191.845 60.2337 194.017 58.2719 196.696 58.2719C199.375 58.2719 201.547 60.2337 201.547 62.6535Z" fill="#F2F2F2"/>
<path d="M154.072 69.8382C154.072 72.2579 151.9 74.2197 149.221 74.2197C146.542 74.2197 144.37 72.2579 144.37 69.8382C144.37 67.4184 146.542 65.4566 149.221 65.4566C151.9 65.4566 154.072 67.4184 154.072 69.8382Z" fill="#F2F2F2"/>
<path d="M147.259 39.4043C146.964 39.4804 146.647 39.5566 146.331 39.6328C145.908 40.1097 145.528 40.5865 145.148 41.0634C147.871 39.6711 149.92 38.8323 150.596 38.6989C149.751 38.8512 148.631 39.0802 147.259 39.4043ZM130.748 65.9127C131.72 66.3896 132.712 66.9809 133.683 67.6863C133.704 67.5718 133.704 67.4767 133.747 67.3811C132.522 66.7326 131.508 66.2368 130.748 65.9127Z" fill="#F2F2F2"/>
<path d="M13.658 106.572C14.1364 106.293 14.3765 105.86 14.3765 105.275C14.3765 104.116 13.4255 103.538 11.5243 103.538H7.34592V106.992H11.5243C12.4678 106.992 13.1787 106.852 13.658 106.572V106.572ZM7.34592 97.8864V101.182H10.9058C11.7899 101.182 12.4602 101.041 12.9172 100.762C13.3741 100.483 13.6026 100.07 13.6026 99.5241C13.6026 98.9783 13.3741 98.5692 12.9172 98.2963C12.4602 98.0234 11.7899 97.8864 10.9058 97.8864H7.34592ZM17.2281 103.428C17.7293 104.02 17.9797 104.749 17.9797 105.614C17.9797 106.839 17.4526 107.781 16.3994 108.439C15.3453 109.099 13.8088 109.428 11.7899 109.428H3.78735V95.4505H11.3476C13.234 95.4505 14.6822 95.777 15.6921 96.4288C16.7011 97.0814 17.2063 97.9662 17.2063 99.0847C17.2063 99.7635 17.0255 100.369 16.664 100.902C16.303 101.435 15.7983 101.854 15.1499 102.16C16.0344 102.413 16.727 102.835 17.2281 103.428Z" fill="#F2F2F2"/>
<path d="M20.4578 94.6116H23.9061V109.428H20.4578V94.6116Z" fill="#F2F2F2"/>
<path d="M30.6252 101.481C30.0941 101.88 29.7697 102.426 29.6519 103.118H35.511C35.3922 102.439 35.0683 101.897 34.5381 101.49C34.0075 101.085 33.3586 100.882 32.5923 100.882C31.8114 100.882 31.1553 101.082 30.6252 101.481ZM38.6938 104.935H29.6965C29.8585 105.601 30.2418 106.127 30.8461 106.513C31.4499 106.899 32.2019 107.092 33.1011 107.092C33.7196 107.092 34.269 107.009 34.7478 106.842C35.2267 106.676 35.673 106.413 36.0853 106.053L37.9204 107.85C36.8002 109.009 35.1638 109.587 33.0127 109.587C31.6712 109.587 30.485 109.351 29.4533 108.879C28.4215 108.407 27.6253 107.751 27.0653 106.912C26.5056 106.073 26.2258 105.122 26.2258 104.057C26.2258 103.005 26.5021 102.057 27.055 101.211C27.6075 100.366 28.3661 99.7071 29.3319 99.2343C30.2972 98.7619 31.3767 98.5257 32.5705 98.5257C33.7343 98.5257 34.7884 98.7518 35.7319 99.2045C36.6748 99.6576 37.4152 100.306 37.953 101.152C38.4907 101.997 38.7603 102.978 38.7603 104.096C38.7603 104.137 38.7384 104.416 38.6938 104.935" fill="#F2F2F2"/>
<path d="M42.1654 109.258C41.222 109.039 40.4705 108.763 39.9104 108.429L41.06 106.193C41.5906 106.5 42.2319 106.749 42.9834 106.942C43.7349 107.135 44.4722 107.232 45.1938 107.232C46.6531 107.232 47.3828 106.905 47.3828 106.253C47.3828 105.947 47.1842 105.727 46.7856 105.594C46.388 105.461 45.7762 105.348 44.9506 105.255C43.9782 105.122 43.1749 104.969 42.5412 104.795C41.9075 104.622 41.3585 104.316 40.8944 103.877C40.4299 103.438 40.1982 102.812 40.1982 102C40.1982 101.321 40.4151 100.718 40.8498 100.193C41.2845 99.6668 41.9186 99.2577 42.7509 98.9651C43.5841 98.6724 44.5672 98.5257 45.7025 98.5257C46.5424 98.5257 47.3787 98.6091 48.2115 98.7752C49.0442 98.9417 49.7333 99.1719 50.2786 99.4641L49.1295 101.681C48.0825 101.149 46.9405 100.882 45.7025 100.882C44.9653 100.882 44.4128 100.975 44.0442 101.161C43.676 101.348 43.4917 101.588 43.4917 101.88C43.4917 102.213 43.6908 102.447 44.0888 102.579C44.4869 102.713 45.1206 102.839 45.9899 102.958C46.9628 103.105 47.759 103.261 48.3775 103.428C48.9969 103.594 49.5347 103.897 49.9917 104.336C50.4477 104.776 50.6767 105.388 50.6767 106.173C50.6767 106.839 50.4558 107.431 50.0135 107.95C49.5717 108.469 48.9264 108.872 48.0789 109.158C47.2315 109.444 46.2256 109.587 45.0617 109.587C44.0737 109.587 43.1084 109.478 42.1654 109.258Z" fill="#F2F2F2"/>
<path d="M53.9052 109.258C52.9617 109.039 52.2102 108.763 51.6501 108.429L52.7997 106.193C53.3304 106.5 53.9716 106.749 54.7232 106.942C55.4747 107.135 56.2119 107.232 56.934 107.232C58.3929 107.232 59.1225 106.905 59.1225 106.253C59.1225 105.947 58.9239 105.727 58.5254 105.594C58.1278 105.461 57.5159 105.348 56.6903 105.255C55.7179 105.122 54.9146 104.969 54.2814 104.795C53.6472 104.622 53.0983 104.316 52.6342 103.877C52.1701 103.438 51.938 102.812 51.938 102C51.938 101.321 52.1553 100.718 52.5895 100.193C53.0242 99.6668 53.6584 99.2577 54.4907 98.9651C55.3238 98.6724 56.307 98.5257 57.4423 98.5257C58.2822 98.5257 59.1185 98.6091 59.9512 98.7752C60.784 98.9417 61.473 99.1719 62.0184 99.4641L60.8692 101.681C59.8223 101.149 58.6802 100.882 57.4423 100.882C56.7051 100.882 56.1526 100.975 55.784 101.161C55.4162 101.348 55.2315 101.588 55.2315 101.88C55.2315 102.213 55.431 102.447 55.8286 102.579C56.2267 102.713 56.8604 102.839 57.7297 102.958C58.7026 103.105 59.4987 103.261 60.1172 103.428C60.7367 103.594 61.2744 103.897 61.7314 104.336C62.1875 104.776 62.4164 105.388 62.4164 106.173C62.4164 106.839 62.1955 107.431 61.7533 107.95C61.3115 108.469 60.6662 108.872 59.8187 109.158C58.9712 109.444 57.9653 109.587 56.8014 109.587C55.8139 109.587 54.8481 109.478 53.9052 109.258Z" fill="#F2F2F2"/>
<path d="M67.9084 108.739C66.6334 108.12 65.631 107.262 64.9014 106.163C64.1722 105.065 63.8071 103.824 63.8071 102.439C63.8071 101.055 64.1722 99.8135 64.9014 98.7151C65.631 97.6167 66.6334 96.7585 67.9084 96.1394C69.1829 95.5207 70.6163 95.2107 72.2082 95.2107C73.5492 95.2107 74.7613 95.4239 75.8444 95.8496C76.9279 96.276 77.8379 96.8883 78.5751 97.6868L76.2759 99.6039C75.229 98.5123 73.9326 97.9662 72.3844 97.9662C71.4268 97.9662 70.5721 98.156 69.8202 98.5357C69.0691 98.9154 68.4827 99.4439 68.0628 100.123C67.6428 100.802 67.4326 101.574 67.4326 102.439C67.4326 103.305 67.6428 104.076 68.0628 104.756C68.4827 105.434 69.0691 105.963 69.8202 106.343C70.5721 106.722 71.4268 106.912 72.3844 106.912C73.9326 106.912 75.229 106.36 76.2759 105.255L78.5751 107.171C77.8379 107.984 76.9239 108.602 75.8337 109.029C74.7425 109.454 73.5269 109.668 72.1859 109.668C70.6087 109.668 69.1829 109.358 67.9084 108.739Z" fill="#F2F2F2"/>
<path d="M88.1573 106.223C88.7245 105.684 89.0084 104.962 89.0084 104.056C89.0084 103.152 88.7245 102.429 88.1573 101.89C87.5901 101.351 86.8645 101.081 85.98 101.081C85.0959 101.081 84.3658 101.351 83.791 101.89C83.2162 102.429 82.9292 103.152 82.9292 104.056C82.9292 104.962 83.2162 105.684 83.791 106.223C84.3658 106.762 85.0959 107.031 85.98 107.031C86.8645 107.031 87.5901 106.762 88.1573 106.223V106.223ZM82.6084 108.879C81.6136 108.406 80.8362 107.75 80.2762 106.912C79.7161 106.073 79.4363 105.122 79.4363 104.056C79.4363 102.991 79.7161 102.039 80.2762 101.201C80.8362 100.363 81.6136 99.7067 82.6084 99.2339C83.6031 98.7615 84.7273 98.5253 85.98 98.5253C87.2322 98.5253 88.3528 98.7615 89.3399 99.2339C90.3275 99.7067 91.1009 100.363 91.6619 101.201C92.2211 102.039 92.5013 102.991 92.5013 104.056C92.5013 105.122 92.2211 106.073 91.6619 106.912C91.1009 107.75 90.3275 108.406 89.3399 108.879C88.3528 109.351 87.2322 109.587 85.98 109.587C84.7273 109.587 83.6031 109.351 82.6084 108.879" fill="#F2F2F2"/>
<path d="M113.582 99.7135C114.459 100.506 114.898 101.694 114.898 103.278V109.428H111.449V103.757C111.449 102.905 111.253 102.269 110.863 101.85C110.473 101.431 109.916 101.221 109.194 101.221C108.384 101.221 107.742 101.458 107.271 101.93C106.799 102.403 106.564 103.105 106.564 104.037V109.428H103.114V103.757C103.114 102.067 102.363 101.221 100.86 101.221C100.064 101.221 99.4303 101.458 98.9586 101.93C98.4869 102.403 98.2513 103.105 98.2513 104.037V109.428H94.8025V98.6848H98.0964V99.9231C98.5387 99.4704 99.0804 99.1246 99.7213 98.8844C100.362 98.6457 101.066 98.5256 101.833 98.5256C102.672 98.5256 103.431 98.6752 104.11 98.9747C104.787 99.2741 105.333 99.7103 105.746 100.283C106.232 99.7232 106.847 99.2911 107.591 98.9843C108.335 98.6792 109.15 98.5256 110.034 98.5256C111.523 98.5256 112.706 98.9218 113.582 99.7135Z" fill="#F2F2F2"/>
<path d="M128.792 99.7236C129.699 100.522 130.152 101.708 130.152 103.278V109.428H126.703V103.758C126.703 102.906 126.496 102.269 126.084 101.85C125.672 101.431 125.075 101.221 124.294 101.221C123.423 101.221 122.731 101.465 122.216 101.95C121.699 102.436 121.442 103.158 121.442 104.116V109.428H117.993V98.6852H121.287V99.9433C121.743 99.491 122.311 99.1419 122.989 98.8952C123.667 98.6486 124.411 98.5256 125.222 98.5256C126.695 98.5256 127.886 98.9251 128.792 99.7236Z" fill="#F2F2F2"/>
<path d="M61.1202 68.6329L54.9612 72.7613C63.6385 77.7886 75.3428 86.0538 113.567 91.8345C82.2467 83.285 70.2888 75.4745 61.1202 68.6329Z" fill="#F2F2F2"/>
<path d="M58.9404 59.2986L60.8308 67.3575C49.8356 75.4973 29.8944 85.8699 0 90.6593C20.4294 84.2067 43.1219 75.7569 58.9404 59.2986Z" fill="#F2F2F2"/>
</svg>
