<svg width="33" height="34" viewBox="0 0 33 34" fill="none" xmlns="http://www.w3.org/2000/svg">
<path fill-rule="evenodd" clip-rule="evenodd" d="M14.0208 15.3257H9.16034L9.16047 15.326H9.16004L0 29.6096H2.24327L10.1685 17.2515L11.7648 20.3008L5.79529 29.6093H8.03856L12.773 22.2267L14.2851 25.1151L11.403 29.6093H13.6462L15.2933 27.0409L16.6379 29.6093H21.4983L17.9693 22.8682L18.3804 22.2272L22.245 29.6093H27.1055L21.0564 18.0544L21.4684 17.4119L27.8539 29.6093H32.7143L25.2367 15.3257H22.8063H20.563H20.3763L20.4602 15.486L20.0482 16.1285L19.6279 15.3257H17.1986H14.9553H14.7675L14.8519 15.487L14.4408 16.1281L14.0208 15.3257ZM15.8601 17.4129L17.3722 20.3013L16.9611 20.9423L15.449 18.054L15.8601 17.4129Z" fill="#8B47C0"/>
<path fill-rule="evenodd" clip-rule="evenodd" d="M20.19 0.407532V6.99988L29.1634 6.99988V13.9586H20.19V14.6848H17.9339V11.7485H26.9072V9.20999H17.9339L17.9339 2.61764H14.9686L14.9686 9.20999L5.62189 9.20999V11.7485H14.9686V14.6848H12.7124V13.9586H3.36572V6.99988L12.7124 6.99988L12.7124 0.407532H20.19ZM12.7124 30.3218L12.7124 33.7359H20.19V30.3218H17.9339V31.5258H14.9686V30.3218H12.7124Z" fill="#8B47C0"/>
</svg>
